<?xml version="1.0" standalone="no"?>
<!DOCTYPE svg PUBLIC "-//W3C//DTD SVG 20010904//EN"
 "http://www.w3.org/TR/2001/REC-SVG-20010904/DTD/svg10.dtd">
<svg version="1.0" xmlns="http://www.w3.org/2000/svg"
 width="966.000000pt" height="966.000000pt" viewBox="0 0 966.000000 966.000000"
 preserveAspectRatio="xMidYMid meet">
<metadata>
Created by potrace 1.14, written by Peter Selinger 2001-2017
</metadata>
<g transform="translate(0.000000,966.000000) scale(0.100000,-0.100000)"
fill="#000000" stroke="none">
<path d="M3630 5026 c0 -287 2 -331 18 -384 34 -108 114 -198 218 -243 78 -35
264 -39 264 -6 0 6 -12 42 -26 79 l-26 68 -54 0 c-88 0 -167 52 -205 135 -15
33 -19 66 -19 178 l0 137 125 0 125 0 0 85 0 85 -125 0 -125 0 0 95 0 95 -85
0 -85 0 0 -324z"/>
<path d="M5640 5046 c0 -167 5 -328 10 -357 23 -121 104 -228 216 -284 55 -28
67 -30 169 -30 105 0 114 2 177 33 78 38 149 110 187 192 23 48 26 68 26 160
0 93 -3 111 -27 163 -15 31 -50 81 -77 110 -91 96 -188 127 -398 127 l-113 0
0 53 0 53 -85 42 -85 42 0 -304z m496 -84 c115 -59 156 -189 97 -302 -39 -74
-96 -112 -173 -118 -81 -6 -138 17 -189 74 -50 57 -61 103 -61 255 l0 121 143
-4 c121 -3 148 -7 183 -26z"/>
<path d="M9233 5306 l-83 -40 0 -53 0 -53 -112 0 c-135 0 -224 -13 -285 -42
-71 -33 -148 -111 -185 -186 -31 -63 -33 -73 -33 -172 0 -92 3 -112 26 -160
38 -81 109 -154 186 -192 85 -42 208 -51 299 -22 131 41 241 167 264 302 7 43
10 172 8 363 l-3 296 -82 -41z m-83 -442 c0 -149 -10 -190 -62 -249 -50 -56
-107 -79 -188 -73 -78 6 -134 44 -173 119 -54 102 -24 221 73 285 54 36 85 42
228 43 l122 1 0 -126z"/>
<path d="M6540 4855 l0 -485 85 0 85 0 0 485 0 485 -85 0 -85 0 0 -485z"/>
<path d="M1004 5150 c-119 -18 -238 -109 -290 -223 -26 -56 -29 -72 -29 -167
0 -93 3 -112 27 -162 37 -80 107 -152 187 -191 65 -32 66 -32 243 -35 l178 -4
0 86 0 85 -163 3 c-162 3 -164 3 -205 32 -37 25 -82 81 -82 100 0 3 136 6 301
6 l302 0 -6 83 c-10 136 -58 235 -149 308 -84 66 -203 96 -314 79z m163 -186
c33 -16 103 -86 103 -104 0 -6 -74 -10 -200 -10 -110 0 -200 3 -200 8 0 4 14
24 31 45 66 80 173 105 266 61z"/>
<path d="M3051 5149 c-113 -19 -231 -109 -280 -214 -94 -199 -11 -435 186
-532 53 -26 67 -28 168 -28 93 0 118 3 159 23 156 72 245 222 233 393 -16 236
-228 398 -466 358z m186 -195 c105 -61 141 -183 87 -292 -70 -142 -258 -165
-362 -46 -167 189 57 464 275 338z"/>
<path d="M4561 5149 c-113 -19 -231 -109 -280 -214 -94 -199 -11 -435 186
-532 56 -27 64 -28 241 -31 l182 -4 0 86 0 86 -152 0 c-127 0 -160 4 -194 19
-37 17 -114 93 -114 113 0 4 136 8 301 8 l302 0 -5 93 c-4 72 -11 107 -30 149
-76 166 -253 258 -437 227z m186 -195 c37 -21 61 -47 87 -91 6 -10 -37 -13
-199 -13 -202 0 -205 0 -195 20 21 39 85 91 129 105 58 18 123 11 178 -21z"/>
<path d="M7144 5150 c-119 -18 -238 -109 -290 -223 -26 -56 -29 -72 -29 -167
0 -93 3 -112 27 -162 37 -80 107 -152 187 -191 65 -32 66 -32 243 -35 l178 -4
0 86 0 85 -163 3 c-162 3 -164 3 -205 32 -37 25 -82 81 -82 100 0 3 136 6 301
6 l302 0 -6 83 c-10 136 -58 235 -149 308 -84 66 -203 96 -314 79z m124 -172
c36 -9 60 -25 102 -67 l55 -56 -204 -3 c-112 -1 -206 0 -209 3 -9 9 53 79 87
99 30 17 77 32 109 35 7 1 34 -4 60 -11z"/>
<path d="M324 5132 c-108 -38 -208 -141 -239 -247 -11 -36 -15 -106 -15 -282
l0 -233 79 0 79 0 4 223 c3 193 5 227 22 257 46 86 119 133 206 133 l56 -1 27
76 c15 41 25 78 21 81 -3 3 -47 7 -97 9 -69 2 -105 -2 -143 -16z"/>
<path d="M1764 5134 c-53 -19 -117 -74 -148 -127 -36 -62 -46 -146 -46 -404
l0 -233 85 0 84 0 3 259 c3 244 4 261 24 287 67 91 161 91 228 0 20 -26 21
-43 24 -287 l3 -259 80 0 79 0 0 238 c0 130 4 253 10 271 31 109 156 139 229
55 l31 -35 0 -264 0 -265 85 0 85 0 0 279 0 279 -33 63 c-36 70 -102 128 -167
148 -53 16 -160 14 -211 -4 -23 -9 -58 -27 -76 -41 l-33 -25 -42 29 c-24 16
-58 34 -77 40 -46 16 -167 14 -217 -4z"/>
<path d="M7930 5128 c-76 -29 -160 -114 -188 -191 -20 -54 -22 -76 -22 -312
l0 -255 79 0 80 0 3 238 c3 231 4 238 28 280 33 59 97 96 161 95 58 -1 100
-24 143 -76 l31 -39 3 -249 3 -249 85 0 85 0 -3 263 -3 262 -28 57 c-36 74
-97 134 -172 169 -52 25 -72 29 -145 28 -61 0 -100 -6 -140 -21z"/>
<path d="M9430 4450 l0 -80 80 0 80 0 0 80 0 80 -80 0 -80 0 0 -80z"/>
</g>
</svg>
