<?xml version="1.0" standalone="no"?>
<!DOCTYPE svg PUBLIC "-//W3C//DTD SVG 1.1//EN" "http://www.w3.org/Graphics/SVG/1.1/DTD/svg11.dtd" >
<svg xmlns="http://www.w3.org/2000/svg" xmlns:xlink="http://www.w3.org/1999/xlink" version="1.1">
<metadata>
Created by FontForge 20170731 at Tue Jan 19 23:43:38 2021
 By Aleksey,,,
Maia (c) (Prisma Media). 2021. All Rights Reserved
</metadata>
<defs>
<font id="Maia" horiz-adv-x="508" >
  <font-face 
    font-family="Maia"
    font-weight="400"
    font-stretch="normal"
    units-per-em="2048"
    panose-1="2 0 6 0 0 0 0 0 0 0"
    ascent="1528"
    descent="-520"
    x-height="785"
    cap-height="979"
    bbox="-21 -425 1438.48 1249"
    underline-thickness="150"
    underline-position="-442"
    unicode-range="U+001D-FB02"
  />
<missing-glyph 
 />
    <glyph glyph-name=".notdef" 
 />
    <glyph glyph-name=".notdef" 
 />
    <glyph glyph-name=".null" horiz-adv-x="0" 
 />
    <glyph glyph-name="nonmarkingreturn" horiz-adv-x="682" 
 />
    <glyph glyph-name="space" unicode=" " 
 />
    <glyph glyph-name="space" unicode="&#xa0;" 
 />
    <glyph glyph-name="exclam" unicode="!" horiz-adv-x="280" 
d="M60 0v0v72l160 80v-152h-160zM60 257v0v722h160v-722h-160z" />
    <glyph glyph-name="quotedbl" unicode="&#x22;" horiz-adv-x="519" 
d="M60 979v0h160v-152l-109 -120v120h-51v152zM299 979v0h160v-152l-109 -120v120h-51v152z" />
    <glyph glyph-name="numbersign" unicode="#" horiz-adv-x="944" 
d="M713 978v0v-235h171v-160h-171v-188h171v-160h-171v-235h-160v235h-163v-235h-160v235h-170v160h170v188h-170v160h170v235h160v-235h163v235h160zM553 395v0v188h-163v-188h163z" />
    <glyph glyph-name="dollar" unicode="$" horiz-adv-x="993" 
d="M649 568v0q118 0 201 -83.5t83 -200.5q0 -118 -83 -201t-201 -83h-80v-110h-160v110h-308v160h308v248h-65q-117 0 -200.5 83.5t-83.5 200.5q0 118 83.5 201t200.5 83h65v110h160v-110h307v-160h-307v-248h3h77zM344 568v0h65v248h-65q-51 0 -87.5 -36.5t-36.5 -87.5
t36.5 -87.5t87.5 -36.5zM649 160v0q51 0 87.5 36.5t36.5 87.5t-36.5 87.5t-87.5 36.5h-77h-3v-248h80z" />
    <glyph glyph-name="percent" unicode="%" horiz-adv-x="1219" 
d="M303 492v0q-100 0 -171.5 71.5t-71.5 172.5q0 100 71.5 171.5t171.5 71.5q101 0 172 -71.5t71 -171.5q0 -101 -71 -172.5t-172 -71.5zM303 819v0q-34 0 -58.5 -24.5t-24.5 -58.5q0 -35 24.5 -59.5t58.5 -24.5t58.5 24.5t24.5 59.5q0 34 -24.5 58.5t-58.5 24.5zM916 486v0
q101 0 172 -71t71 -172q0 -100 -71 -171.5t-172 -71.5q-100 0 -171.5 71.5t-71.5 171.5q0 101 71.5 172t171.5 71zM916 160v0q34 0 58.5 24.5t24.5 58.5t-24.5 58.5t-58.5 24.5t-58.5 -24.5t-24.5 -58.5t24.5 -58.5t58.5 -24.5zM852 977v0h195l-680 -976h-195z" />
    <glyph glyph-name="ampersand" unicode="&#x26;" horiz-adv-x="912" 
d="M808 396v0q-15 -94 -51 -164l95 -104l-117 -108l-76 83q-60 -53 -131 -78t-143 -25q-17 0 -35 1q-128 13 -209 85.5t-81 174.5q0 64 25.5 117t66.5 97t90 81l-9 9q-28 30 -51.5 93t-7.5 145q7 34 31.5 74.5t76.5 71t143 30.5q106 0 178 -78q23 -26 38 -72.5t4 -116.5
q-11 -55 -55 -98.5t-106 -84.5l153 -166q8 27 14 59zM330 766v0q-4 -20 -1.5 -36.5t8 -29.5t10 -20t5.5 -7l22 -25q38 25 72 51t42 42q6 39 -8 57q-10 11 -25.5 16t-29.5 5q-41 0 -60.5 -9t-26 -21t-8.5 -23zM363 161v0q46 -4 95 10t92 50l-199 217q-56 -40 -93.5 -84
t-37.5 -93q0 -43 44.5 -69.5t98.5 -30.5z" />
    <glyph glyph-name="quotesingle" unicode="'" horiz-adv-x="280" 
d="M60 979v0h160v-152l-109 -120v120h-51v152z" />
    <glyph glyph-name="parenleft" unicode="(" horiz-adv-x="397" 
d="M262 1221v0l75 -27q-1 -2 -18.5 -58.5t-40.5 -156t-40.5 -231t-17.5 -281.5q0 -153 17 -273t39 -202.5t39 -126t18 -44.5l-143 -71q-3 4 -22.5 53t-44.5 140.5t-44 223t-19 300.5q0 162 18.5 301.5t43 245.5t43.5 167t22 68z" />
    <glyph glyph-name="parenright" unicode=")" horiz-adv-x="397" 
d="M135 1221l75 28q3 -7 22 -68t43.5 -167t43 -245.5t18.5 -301.5q0 -169 -19 -300.5t-44 -223t-44.5 -140.5t-22.5 -53l-144 71q2 1 19 44.5t39 126t39 202.5t17 273q0 150 -17.5 281.5t-40.5 231t-40.5 156t-18.5 58.5l75 27v0z" />
    <glyph glyph-name="asterisk" unicode="*" 
 />
    <glyph glyph-name="plus" unicode="+" horiz-adv-x="750" 
d="M455 576h235v-160h-235v-235h-160v235h-235v160h235v234h160v-234z" />
    <glyph glyph-name="comma" unicode="," horiz-adv-x="280" 
d="M60 152v0h160v-152l-109 -120v120h-51v152z" />
    <glyph glyph-name="hyphen" unicode="-" horiz-adv-x="750" 
d="M690 416v0h-630v160h630v-160z" />
    <glyph glyph-name="hyphen" unicode="&#xad;" horiz-adv-x="750" 
d="M690 416v0h-630v160h630v-160z" />
    <glyph glyph-name="period" unicode="." horiz-adv-x="280" 
d="M60 0v0v152h160v-152h-160z" />
    <glyph glyph-name="slash" unicode="/" horiz-adv-x="728" 
d="M498 1095v0h170l-438 -1212h-170z" />
    <glyph glyph-name="zero" unicode="0" horiz-adv-x="856" 
d="M428 979v0q101 0 184.5 -51.5t133.5 -137.5t50 -190v-144v-35v-42q0 -105 -50 -191t-133.5 -137t-184.5 -51q-102 0 -185.5 51t-133 137t-49.5 191v42v35v144q0 104 49.5 190t133 137.5t185.5 51.5zM636 421v0v35v144q0 90 -61 154.5t-147 64.5t-147 -64.5t-61 -154.5
v-144v-35v-42q0 -91 61 -155t147 -64t147 64t61 155v42z" />
    <glyph glyph-name="one" unicode="1" horiz-adv-x="384" 
d="M60 819v0v160h264v-979h-160v819h-104z" />
    <glyph glyph-name="two" unicode="2" horiz-adv-x="788" 
d="M720 705v0q8 -105 -58 -198t-199 -221q-71 -71 -128 -126h383v-160h-623l1 154l26 24q3 3 69 65.5t159 155.5q122 120 169 183.5t42 111.5q-2 33 -15 61t-48 46t-105 18q-107 0 -147 -87q-12 -27 -17.5 -51t-7 -40t-1.5 -17h-160q0 54 18 115.5t57 115.5t102.5 89
t155.5 35q147 0 232 -71.5t95 -202.5z" />
    <glyph glyph-name="three" unicode="3" horiz-adv-x="802" 
d="M653 532v0q89 -82 89 -214t-86 -219q-51 -47 -108 -68.5t-102 -26.5t-58 -4h-3q-17 0 -76 8.5t-127.5 43.5t-121.5 113l135 86q23 -34 54.5 -53t62.5 -27t52 -9.5t22 -1.5h2h2q23 -1 70 10t85 44q37 37 37 104q0 42 -12 63.5t-24 31.5q-44 35 -104 41.5t-89 2.5l-87 -10
l-3 149l228 223h-364v160h595l-2 -159l-218 -214q80 -16 151 -74z" />
    <glyph glyph-name="four" unicode="4" horiz-adv-x="869" 
d="M750 331v0h59v-160h-59v-171h-160v171h-530v150l333 658h180l-328 -648h345v268h160v-268z" />
    <glyph glyph-name="five" unicode="5" horiz-adv-x="771" 
d="M382 640v0q141 0 235 -90.5t94 -226.5t-99 -229.5t-243 -93.5h-27q-84 0 -158.5 38t-123.5 106l131 93q60 -77 151 -77h27q77 0 129.5 47.5t52.5 115.5q0 69 -47 113t-122 44h-26l-272 -3l26 502h544v-160h-392l-9 -180z" />
    <glyph glyph-name="six" unicode="6" horiz-adv-x="827" 
d="M413 704v0q98 0 178 -47.5t128 -127.5t48 -177t-48 -177t-128 -127.5t-178 -47.5q-97 0 -177.5 47.5t-128 127.5t-47.5 177q0 107 57 192l266 435h187l-168 -275h3h8zM413 160v0q80 0 137 56.5t57 135.5q0 80 -57 136.5t-137 56.5q-99 0 -159 -84l-9 -14v0
q-25 -43 -25 -95q0 -79 56.5 -135.5t136.5 -56.5v0z" />
    <glyph glyph-name="seven" unicode="7" horiz-adv-x="754" 
d="M60 979v0h634v-153l-365 -826h-175l362 819h-456v160z" />
    <glyph glyph-name="eight" unicode="8" horiz-adv-x="777" 
d="M601 548v0q54 -43 85 -105t31 -135q0 -127 -90.5 -217.5t-218.5 -90.5h-39q-128 0 -218.5 90.5t-90.5 217.5q0 73 31 135t85 105q-66 73 -66 169q0 108 81.5 185t196.5 77t197 -77t82 -185q0 -96 -66 -169zM388 819v0q-48 0 -83 -30t-35 -72q0 -38 29.5 -66.5t72.5 -34.5
h33q43 6 72.5 34.5t29.5 66.5q0 42 -35.5 72t-83.5 30zM408 160v0q62 0 105.5 43.5t43.5 104.5q0 60 -42 102.5t-103 45.5q-12 -1 -24 -1q-11 0 -23 1q-62 -3 -103.5 -45.5t-41.5 -102.5q0 -61 43.5 -104.5t105.5 -43.5h39z" />
    <glyph glyph-name="nine" unicode="9" horiz-adv-x="827" 
d="M413 274v0q-97 0 -177.5 48t-128 127.5t-47.5 177.5q0 97 47.5 177t128 127.5t177.5 47.5q98 0 178 -47.5t128 -127.5t48 -177q0 -107 -58 -193l-265 -434h-187l167 275h-2q-4 -1 -9 -1zM413 819v0q-80 0 -136.5 -56.5t-56.5 -135.5q0 -80 56.5 -136.5t136.5 -56.5
q100 0 160 84l8 14h1q25 43 25 95q0 79 -57 135.5t-137 56.5v0z" />
    <glyph glyph-name="colon" unicode=":" horiz-adv-x="280" 
d="M60 0v0v152h160v-152h-160zM60 415v0v152h160v-152h-160z" />
    <glyph glyph-name="semicolon" unicode=";" horiz-adv-x="280" 
d="M60 415v0v152h160v-152h-160zM60 152v0h160v-152l-109 -120v120h-51v152z" />
    <glyph glyph-name="less" unicode="&#x3c;" horiz-adv-x="680" 
d="M620 272v0v-184l-560 315v32v119v32l560 315v-183l-396 -223z" />
    <glyph glyph-name="equal" unicode="=" horiz-adv-x="750" 
d="M690 553v0h-630v160h630v-160zM690 269v0h-630v160h630v-160z" />
    <glyph glyph-name="greater" unicode="&#x3e;" horiz-adv-x="680" 
d="M60 272l396 223l-396 223v183l560 -315v-32v-119v-32l-560 -315v184v0z" />
    <glyph glyph-name="question" unicode="?" horiz-adv-x="803" 
d="M414 979v0q81 0 156.5 -39.5t124 -113t48.5 -176.5q0 -89 -33 -152t-84 -101.5t-107.5 -56.5t-104.5 -18h-21v-67h-160v227h181q1 0 18 1.5t42 9.5t50 26t42 49.5t17 81.5q0 62 -28.5 99t-68 53.5t-72.5 16.5h-26q-42 0 -80.5 -15t-63 -46.5t-24.5 -80.5h-160
q0 131 93 216.5t235 85.5h26zM234 0v0v72l160 80v-152h-160z" />
    <glyph glyph-name="at" unicode="@" horiz-adv-x="1511" 
d="M736 1071v0q268 0 444.5 -129t235.5 -367q35 -151 15.5 -287.5t-87.5 -225.5q-72 -87 -164 -87q-53 0 -97 24h-342q-108 0 -197 53.5t-142.5 142.5t-53.5 197q0 109 53 198t142.5 142t197.5 53q106 0 194 -51.5t141 -137.5t57 -193h1v-11v0v0v-174q0 -7 2 -22.5t9 -32.5
q8 -20 17.5 -24t17.5 -4q12 0 22.5 9.5t15.5 16.5q39 48 55 147.5t-13 228.5q-44 184 -177 279t-347 95q-231 0 -373.5 -145.5t-142.5 -382.5q0 -127 60.5 -241t167.5 -187q228 -147 526 -28l61 -148q-160 -66 -313 -66q-198 0 -363 109q-140 95 -219.5 244.5t-79.5 316.5
q0 303 194 501q93 91 217 139t265 48zM741 159v0h233v59v2v172q0 96 -68.5 164.5t-164.5 68.5t-164.5 -68.5t-68.5 -164.5t68.5 -164.5t164.5 -68.5z" />
    <glyph glyph-name="A" unicode="A" horiz-adv-x="905" 
d="M453 977v0q108 0 197 -53t142 -142t53 -198v-584h-160v311h-465v-311h-160v584q0 109 53 198t142 142t198 53zM220 471v0h465v113q0 97 -68 165t-164 68q-97 0 -165 -68t-68 -165v-113z" />
    <glyph glyph-name="B" unicode="B" horiz-adv-x="866" 
d="M700 504v0q49 -39 77.5 -96.5t28.5 -123.5q0 -118 -83.5 -201t-200.5 -83h-462v979h430q117 0 200.5 -83.5t83.5 -200.5q0 -110 -74 -191zM220 819v0v-248h270q51 0 87.5 36.5t36.5 87.5t-36.5 87.5t-87.5 36.5h-270zM522 160v0q51 0 87.5 36.5t36.5 87.5t-36.5 87
t-87.5 36h-302v-247h302z" />
    <glyph glyph-name="C" unicode="C" horiz-adv-x="977" 
d="M549 818v0q-136 0 -232.5 -96.5t-96.5 -232.5t96.5 -232.5t232.5 -96.5q142 0 248 113l120 -105q-71 -81 -166.5 -124.5t-201.5 -43.5q-135 0 -246 66t-177 177t-66 246t66 246t177 177t246 66q106 0 201.5 -43.5t166.5 -123.5l-120 -106q-106 113 -248 113z" />
    <glyph glyph-name="D" unicode="D" horiz-adv-x="941" 
d="M391 979v0q135 0 246 -66.5t177.5 -177.5t66.5 -246t-66.5 -246t-177.5 -177t-246 -66h-331v979h331zM391 160v0q136 0 233 96.5t97 232.5t-97 233t-233 97h-171v-659h171z" />
    <glyph glyph-name="E" unicode="E" horiz-adv-x="805" 
d="M60 0v0v979h685v-160h-525v-250h374v-160h-374v-249h525v-160h-685z" />
    <glyph glyph-name="F" unicode="F" horiz-adv-x="805" 
d="M60 0v0v979h685v-160h-525v-250h374v-160h-374v-409h-160z" />
    <glyph glyph-name="G" unicode="G" horiz-adv-x="987" 
d="M767 160v0v323h160v-483h-377q-135 0 -246.5 66t-177.5 177.5t-66 246.5q0 134 66 245t177 177.5t246 66.5q103 0 197.5 -42t164.5 -119l-118 -108q-106 109 -244 109q-136 0 -232.5 -96.5t-96.5 -232.5q0 -137 96.5 -233.5t233.5 -96.5h217z" />
    <glyph glyph-name="H" unicode="H" horiz-adv-x="846" 
d="M626 568v0v408h160v-976h-160v408h-406v-408h-160v976h160v-408h406z" />
    <glyph glyph-name="I" unicode="I" horiz-adv-x="280" 
d="M220 979v0v-979h-160v979h160z" />
    <glyph glyph-name="J" unicode="J" horiz-adv-x="593" 
d="M533 979v0v-776v0v0q0 -131 -64 -238t-171.5 -171t-237.5 -64v160q129 0 221 91.5t92 221.5v776h160z" />
    <glyph glyph-name="K" unicode="K" horiz-adv-x="905" 
d="M685 803v0v173h160v-173q0 -97 -42.5 -179t-116.5 -136q74 -59 116.5 -146t42.5 -190v-152h-160v152q0 106 -66 180t-165 78h-1h-1h-232v-410h-160v410v160v134v185v87h160v-87v-185v-134h232h1h1q99 3 165 70t66 163z" />
    <glyph glyph-name="L" unicode="L" horiz-adv-x="773" 
d="M220 977v0v-817h493v-160h-653v977h160z" />
    <glyph glyph-name="M" unicode="M" horiz-adv-x="1212" 
d="M839 977v0q130 0 221.5 -91.5t91.5 -221.5v-664h-160v664q0 63 -44.5 108t-108.5 45q-63 0 -108 -45t-45 -108v-664h-160v664q0 63 -45 108t-108 45t-108 -45t-45 -108v-664h-160v664q0 130 92 221.5t221 91.5q69 0 129.5 -28t103.5 -76q44 48 104 76t129 28z" />
    <glyph glyph-name="N" unicode="N" horiz-adv-x="905" 
d="M453 977v0q108 0 197 -53t142 -142t53 -198v-584h-160v584q0 97 -68 165t-164 68q-97 0 -165 -68t-68 -165v-584h-160v584q0 109 53 198t142 142t198 53z" />
    <glyph glyph-name="O" unicode="O" horiz-adv-x="1099" 
d="M549 979v0q135 0 246 -66.5t177.5 -177.5t66.5 -246t-66.5 -246t-177.5 -177t-245 -66q-135 0 -246.5 66t-177.5 177.5t-66 246.5q0 134 66 245t177 177.5t246 66.5zM550 160v0q136 0 232.5 96.5t96.5 232.5t-97 233t-233 97t-232.5 -96.5t-96.5 -232.5
q0 -137 96.5 -233.5t233.5 -96.5z" />
    <glyph glyph-name="P" unicode="P" horiz-adv-x="866" 
d="M522 977v0q117 0 200.5 -83t83.5 -200q0 -118 -83.5 -201t-200.5 -83h-302v-410h-160v977h462zM522 570v0q51 0 87.5 36t36.5 88q0 51 -36.5 87t-87.5 36h-302v-247h302z" />
    <glyph glyph-name="Q" unicode="Q" horiz-adv-x="1109" 
d="M1039 489v0q0 -95 -34 -179t-94 -150h138v-160h-499q-135 0 -246.5 66t-177.5 177.5t-66 246.5q0 134 66 245t177 177.5t246 66.5t246 -66.5t177.5 -177.5t66.5 -246zM220 490v0q0 -137 96.5 -233.5t233.5 -96.5q136 0 232.5 96.5t96.5 232.5t-97 233t-233 97
t-232.5 -96.5t-96.5 -232.5z" />
    <glyph glyph-name="R" unicode="R" horiz-adv-x="866" 
d="M806 694v0q0 -72 -32 -132t-87 -99q55 -55 87 -129.5t32 -160.5v-173h-160v173q0 96 -59 163.5t-146 73.5h-221v-410h-160v977h462q117 0 200.5 -83t83.5 -200zM220 817v0v-247h213v0h5h4h80q51 0 87.5 36t36.5 88q0 51 -36.5 87t-87.5 36h-302z" />
    <glyph glyph-name="S" unicode="S" horiz-adv-x="993" 
d="M649 568v0q118 0 201 -83t83 -201q0 -117 -83 -200.5t-201 -83.5h-548v160h548q51 0 87.5 36.5t36.5 87.5t-36.5 87.5t-87.5 36.5h-77h-41h-187q-117 0 -200.5 83.5t-83.5 200.5q0 118 83.5 201.5t200.5 83.5h532v-160h-532q-51 0 -87.5 -36.5t-36.5 -88.5
q0 -51 36.5 -87.5t87.5 -36.5h187h41h77z" />
    <glyph glyph-name="T" unicode="T" horiz-adv-x="948" 
d="M60 819v0v160h828v-160h-334v-819h-160v819h-334z" />
    <glyph glyph-name="U" unicode="U" horiz-adv-x="905" 
d="M685 394v0v585h160v-585q0 -109 -53 -198.5t-142 -142.5t-197 -53q-109 0 -198 53t-142 142.5t-53 198.5v585h160v-585q0 -97 68 -165.5t165 -68.5q96 0 164 68.5t68 165.5z" />
    <glyph glyph-name="V" unicode="V" horiz-adv-x="905" 
d="M685 394v0v585h160v-585q0 -108 -53 -197.5t-142 -143t-197 -53.5h-393v979h160v-818h233q96 0 164 68.5t68 164.5z" />
    <glyph glyph-name="W" unicode="W" horiz-adv-x="1212" 
d="M992 314v0v665h160v-665q0 -130 -91.5 -222t-221.5 -92q-69 0 -129 28t-104 77q-43 -49 -103.5 -77t-129.5 -28q-129 0 -221 92t-92 222v665h160v-665q0 -64 45 -109t108 -45t108 45t45 109v665h160v-665q0 -64 45 -109t108 -45q64 0 108.5 45t44.5 109z" />
    <glyph glyph-name="X" unicode="X" horiz-adv-x="905" 
d="M685 814v0v164h160v-164q0 -100 -42.5 -184.5t-115.5 -140.5q73 -56 115.5 -140.5t42.5 -184.5v-164h-160v164q0 101 -68 173t-164 72q-97 0 -165 -72t-68 -173v-164h-160v164q0 100 43 184.5t116 140.5q-73 56 -116 140.5t-43 184.5v164h160v-164q0 -101 68 -173
t165 -72q96 0 164 72t68 173z" />
    <glyph glyph-name="Y" unicode="Y" horiz-adv-x="905" 
d="M685 815v0v164h160v-164q0 -146 -88 -256t-224 -141v-418h-160v418q-137 31 -225 141t-88 256v164h160v-164q0 -101 68 -173t165 -72q96 0 164 72t68 173z" />
    <glyph glyph-name="Z" unicode="Z" horiz-adv-x="910" 
d="M834 748v0l-547 -588h563v-160h-774v167l598 644v8h-614v160h774v-231z" />
    <glyph glyph-name="bracketleft" unicode="[" horiz-adv-x="409" 
d="M60 -229v0v1455h289v-160h-129v-1135h129v-160h-289z" />
    <glyph glyph-name="backslash" unicode="\" horiz-adv-x="728" 
d="M230 1095l438 -1212h-170l-438 1212h170v0z" />
    <glyph glyph-name="bracketright" unicode="]" horiz-adv-x="409" 
d="M349 -229h-289v160h129v1135h-129v160h289v-1455v0z" />
    <glyph glyph-name="asciicircum" unicode="^" horiz-adv-x="934" 
d="M244 413v0h-184l315 560h33h118h32l316 -560h-184l-223 396z" />
    <glyph glyph-name="underscore" unicode="_" horiz-adv-x="750" 
d="M690 -41v0h-630v160h630v-160z" />
    <glyph glyph-name="grave" unicode="`" 
 />
    <glyph glyph-name="a" unicode="a" horiz-adv-x="905" 
d="M452 785v0q109 0 198 -53t142 -142t53 -198v-392h-392q-108 0 -197.5 53t-142.5 142.5t-53 197.5t53 197t142 142t197 53zM685 160v0v232q0 97 -68 165t-165 68q-96 0 -164 -68t-68 -164t68.5 -164.5t164.5 -68.5h232z" />
    <glyph glyph-name="b" unicode="b" horiz-adv-x="905" 
d="M452 785v0q109 0 198 -53t142 -142t53 -198q0 -108 -53 -197t-142 -142t-197 -53t-197.5 53t-142.5 142.5t-53 197.5v312v80v192l160 -80v-112h232zM453 160v0q96 0 164 68t68 164q0 97 -68 165t-165 68h-232v-232q0 -96 68.5 -164.5t164.5 -68.5z" />
    <glyph glyph-name="c" unicode="c" horiz-adv-x="808" 
d="M452 625v0q-96 0 -164 -68.5t-68 -164.5t68 -164t164 -68q101 0 175 80l121 -106q-126 -134 -296 -134q-108 0 -197 53t-142 142t-53 197t53 197.5t142 142.5t197 53q170 0 296 -135l-121 -105q-74 80 -175 80z" />
    <glyph glyph-name="d" unicode="d" horiz-adv-x="905" 
d="M685 785v0v112l160 80v-192v-80v-312q0 -108 -53 -197.5t-142 -142.5t-198 -53q-108 0 -197 53t-142 142t-53 197q0 109 53 198t142.5 142t197.5 53h232zM685 393v0v232h-232q-96 0 -164.5 -68t-68.5 -165q0 -96 68 -164t164 -68q97 0 165 68.5t68 164.5z" />
    <glyph glyph-name="e" unicode="e" horiz-adv-x="905" 
d="M452 785v0q109 0 198 -53t142 -142t53 -198v-80h-611q26 -67 85 -109.5t134 -42.5h248v-160h-248q-108 0 -197.5 53t-142.5 142.5t-53 197.5t53 197t142 142t197 53zM234 472v0h437q-26 68 -84.5 110.5t-134.5 42.5q-75 0 -133.5 -42.5t-84.5 -110.5z" />
    <glyph glyph-name="f" unicode="f" horiz-adv-x="618" 
d="M60 584v0q0 109 53 198t142.5 142t197.5 53q19 0 48 -4t57 -14l-56 -150q-12 4 -26.5 6t-22.5 2q-96 0 -164.5 -68t-68.5 -165v-21h251v-160h-251v-403h-160v584z" />
    <glyph glyph-name="g" unicode="g" horiz-adv-x="905" 
d="M452 785v0q109 0 198 -53t142 -142.5t53 -197.5v-370v-22v-27q0 -108 -53 -197.5t-142 -142.5t-198 -53v160q97 0 165 68.5t68 164.5v27h-232q-108 0 -197.5 53t-142.5 142t-53 198q0 108 53 197t142 142t197 53zM220 393v0q0 -97 68.5 -165t164.5 -68h232v232
q0 96 -68 164.5t-165 68.5q-96 0 -164 -68t-68 -164z" />
    <glyph glyph-name="h" unicode="h" horiz-adv-x="905" 
d="M452 784v0q109 0 198 -53t142 -142.5t53 -197.5v-391h-160v391q0 96 -68 164.5t-165 68.5h-232v-624h-160v704v80v191l160 -80v-111h232z" />
    <glyph glyph-name="i" unicode="i" horiz-adv-x="280" 
d="M60 0v0v590h160v-590h-160zM220 902v0v-160h-160v80z" />
    <glyph glyph-name="j" unicode="j" horiz-adv-x="432" 
d="M372 590v0v-618h-1h1q0 -108 -53 -197.5t-142.5 -142.5t-197.5 -53v160q96 0 164.5 68.5t68.5 164.5v618h160zM372 902v0v-160h-160v80z" />
    <glyph glyph-name="k" unicode="k" horiz-adv-x="905" 
d="M685 716v0v85h160v-85q0 -97 -42.5 -179t-116.5 -137q74 -58 116.5 -145.5t42.5 -190.5v-64h-160v64q0 107 -66 181t-165 78h-1h-1h-232v-323h-160v323v160v221v97v174l160 -80v-94v-97v-221h232h1h1q99 3 165 70t66 163z" />
    <glyph glyph-name="l" unicode="l" horiz-adv-x="280" 
d="M60 0v0v975h160v-975h-160z" />
    <glyph glyph-name="m" unicode="m" horiz-adv-x="1167" 
d="M806 784v0q124 0 212.5 -88.5t88.5 -213.5v-482h-160v482q0 59 -41.5 100.5t-99.5 41.5q-59 0 -100.5 -41.5t-41.5 -100.5v-482h-160v482q0 59 -41.5 100.5t-100.5 41.5t-100.5 -41.5t-41.5 -100.5v-482h-160v482q0 125 88.5 213.5t213.5 88.5q131 0 222 -97
q90 97 222 97z" />
    <glyph glyph-name="n" unicode="n" horiz-adv-x="821" 
d="M411 784v0q96 0 175.5 -47.5t127 -127t47.5 -176.5v-433h-160v433q0 79 -56 135t-134 56q-79 0 -135 -56t-56 -135v-433h-160v433q0 97 47.5 176.5t127 127t176.5 47.5z" />
    <glyph glyph-name="o" unicode="o" horiz-adv-x="905" 
d="M452 785v0q109 0 198 -53t142 -142t53 -198q0 -108 -53 -197t-142 -142t-197 -53t-197.5 53t-142.5 142.5t-53 197.5t53 197t142 142t197 53zM453 160v0q96 0 164 68t68 164q0 97 -68 165t-165 68q-96 0 -164 -68t-68 -164t68.5 -164.5t164.5 -68.5v0z" />
    <glyph glyph-name="p" unicode="p" horiz-adv-x="905" 
d="M453 786v0q108 0 197 -53t142 -142.5t53 -197.5t-53 -197t-142 -142.5t-198 -53.5h-232v-111l-160 -80v191v80v313q0 108 53 197t142.5 142.5t197.5 53.5zM452 160v0q97 0 165 68.5t68 164.5t-68 164.5t-164 68.5t-164.5 -68.5t-68.5 -164.5v-233h232z" />
    <glyph glyph-name="q" unicode="q" horiz-adv-x="905" 
d="M452 786q109 0 198 -53.5t142 -142.5t53 -197v-313v-80v-191l-160 80v111h-232q-108 0 -197.5 53.5t-142.5 142.5t-53 197t53 197.5t142 142.5t197 53v0zM453 160h232v233q0 96 -68 164.5t-165 68.5q-96 0 -164 -68.5t-68 -164.5t68.5 -164.5t164.5 -68.5v0z" />
    <glyph glyph-name="r" unicode="r" horiz-adv-x="618" 
d="M60 391v0q0 108 53 197.5t142.5 142.5t197.5 53q19 0 48 -4t57 -15l-56 -150q-12 5 -26.5 7t-22.5 2q-96 0 -164.5 -68.5t-68.5 -164.5v-391h-160v391z" />
    <glyph glyph-name="s" unicode="s" horiz-adv-x="900" 
d="M603 473v0q98 0 167.5 -69.5t69.5 -167.5q0 -97 -69.5 -166.5t-167.5 -69.5h-511v160h511q32 0 54.5 22.5t22.5 53.5q0 32 -22.5 54.5t-54.5 22.5h-58h-32h-217q-97 0 -166.5 69t-69.5 167t69.5 167t166.5 69h512v-160h-512q-31 0 -53.5 -22t-22.5 -54t22.5 -54t53.5 -22
h217h32h58z" />
    <glyph glyph-name="t" unicode="t" horiz-adv-x="618" 
d="M453 160v0q8 0 22.5 2t26.5 7l56 -150q-28 -11 -57 -15t-48 -4q-108 0 -197.5 53t-142.5 142.5t-53 197.5v591h160v-192h251v-160h-251v-239q0 -96 68.5 -164.5t164.5 -68.5z" />
    <glyph glyph-name="u" unicode="u" horiz-adv-x="821" 
d="M601 347v0v439h160v-439q0 -96 -47.5 -174.5t-127 -125.5t-175.5 -47q-97 0 -176.5 47t-127 125.5t-47.5 174.5v439h160v-439q0 -78 56 -133.5t135 -55.5q78 0 134 55.5t56 133.5z" />
    <glyph glyph-name="v" unicode="v" horiz-adv-x="821" 
d="M601 347v0v439h160v-439q0 -96 -47.5 -174.5t-127 -125.5t-175.5 -47h-351v786h160v-628h191q78 0 134 55.5t56 133.5z" />
    <glyph glyph-name="w" unicode="w" horiz-adv-x="1167" 
d="M947 299v0v488h160v-488q0 -124 -88.5 -211.5t-212.5 -87.5q-132 0 -222 97q-91 -97 -222 -97q-125 0 -213.5 87.5t-88.5 211.5v488h160v-488q0 -58 41.5 -99t100.5 -41t100.5 41t41.5 99v488h160v-488q0 -58 41.5 -99t100.5 -41q58 0 99.5 41t41.5 99z" />
    <glyph glyph-name="x" unicode="x" horiz-adv-x="821" 
d="M601 656v0v131h160v-131q0 -82 -34.5 -152t-93.5 -120q59 -49 93.5 -119t34.5 -152v-113h-160v113q0 79 -56 135t-134 56q-79 0 -135 -56t-56 -135v-113h-160v113q0 82 34.5 152t93.5 119q-59 50 -93.5 120t-34.5 152v131h160v-131q0 -79 56 -135.5t135 -56.5
q78 0 134 56.5t56 135.5z" />
    <glyph glyph-name="y" unicode="y" horiz-adv-x="835" 
d="M615 156v0v629h160v-709v-80v-27q0 -109 -53 -198.5t-142 -142.5t-198 -53v160q97 0 165 68.5t68 165.5v27h-162q-108 0 -197.5 53t-142.5 142.5t-53 198.5v396h160v-396q0 -97 68.5 -165.5t164.5 -68.5h162z" />
    <glyph glyph-name="z" unicode="z" horiz-adv-x="797" 
d="M637 0h-446q-64 0 -97 35q-22 22 -22 62v4q0 38 99 135l360 389h-471l100 160h416q81 0 129 -60q27 -35 27 -72q0 -57 -64 -119l-328 -374h397z" />
    <glyph glyph-name="braceleft" unicode="{" 
 />
    <glyph glyph-name="bar" unicode="|" horiz-adv-x="280" 
d="M60 1139v0h160v-1287h-160v1287z" />
    <glyph glyph-name="braceright" unicode="}" 
 />
    <glyph glyph-name="asciitilde" unicode="~" 
 />
    <glyph glyph-name="exclamdown" unicode="&#xa1;" 
 />
    <glyph glyph-name="cent" unicode="&#xa2;" 
 />
    <glyph glyph-name="sterling" unicode="&#xa3;" 
 />
    <glyph glyph-name="currency" unicode="&#xa4;" 
 />
    <glyph glyph-name="yen" unicode="&#xa5;" 
 />
    <glyph glyph-name="brokenbar" unicode="&#xa6;" 
 />
    <glyph glyph-name="section" unicode="&#xa7;" 
 />
    <glyph glyph-name="dieresis" unicode="&#xa8;" 
 />
    <glyph glyph-name="copyright" unicode="&#xa9;" 
 />
    <glyph glyph-name="ordfeminine" unicode="&#xaa;" 
 />
    <glyph glyph-name="guillemotleft" unicode="&#xab;" 
 />
    <glyph glyph-name="logicalnot" unicode="&#xac;" 
 />
    <glyph glyph-name="registered" unicode="&#xae;" 
 />
    <glyph glyph-name="macron" unicode="&#xaf;" 
 />
    <glyph glyph-name="degree" unicode="&#xb0;" 
 />
    <glyph glyph-name="plusminus" unicode="&#xb1;" 
 />
    <glyph glyph-name="uni00B2" unicode="&#xb2;" 
 />
    <glyph glyph-name="uni00B3" unicode="&#xb3;" 
 />
    <glyph glyph-name="acute" unicode="&#xb4;" 
 />
    <glyph glyph-name="mu" unicode="&#xb5;" 
 />
    <glyph glyph-name="paragraph" unicode="&#xb6;" 
 />
    <glyph glyph-name="periodcentered" unicode="&#xb7;" 
 />
    <glyph glyph-name="periodcentered" unicode="&#x2219;" 
 />
    <glyph glyph-name="cedilla" unicode="&#xb8;" 
 />
    <glyph glyph-name="uni00B9" unicode="&#xb9;" 
 />
    <glyph glyph-name="ordmasculine" unicode="&#xba;" 
 />
    <glyph glyph-name="guillemotright" unicode="&#xbb;" 
 />
    <glyph glyph-name="onequarter" unicode="&#xbc;" 
 />
    <glyph glyph-name="onehalf" unicode="&#xbd;" 
 />
    <glyph glyph-name="threequarters" unicode="&#xbe;" 
 />
    <glyph glyph-name="questiondown" unicode="&#xbf;" 
 />
    <glyph glyph-name="Agrave" unicode="&#xc0;" 
 />
    <glyph glyph-name="Aacute" unicode="&#xc1;" 
 />
    <glyph glyph-name="Acircumflex" unicode="&#xc2;" 
 />
    <glyph glyph-name="Atilde" unicode="&#xc3;" 
 />
    <glyph glyph-name="Adieresis" unicode="&#xc4;" 
 />
    <glyph glyph-name="Aring" unicode="&#xc5;" 
 />
    <glyph glyph-name="AE" unicode="&#xc6;" 
 />
    <glyph glyph-name="Ccedilla" unicode="&#xc7;" 
 />
    <glyph glyph-name="Egrave" unicode="&#xc8;" 
 />
    <glyph glyph-name="Eacute" unicode="&#xc9;" 
 />
    <glyph glyph-name="Ecircumflex" unicode="&#xca;" 
 />
    <glyph glyph-name="Edieresis" unicode="&#xcb;" 
 />
    <glyph glyph-name="Igrave" unicode="&#xcc;" 
 />
    <glyph glyph-name="Iacute" unicode="&#xcd;" 
 />
    <glyph glyph-name="Icircumflex" unicode="&#xce;" 
 />
    <glyph glyph-name="Idieresis" unicode="&#xcf;" 
 />
    <glyph glyph-name="Eth" unicode="&#xd0;" 
 />
    <glyph glyph-name="Ntilde" unicode="&#xd1;" 
 />
    <glyph glyph-name="Ograve" unicode="&#xd2;" 
 />
    <glyph glyph-name="Oacute" unicode="&#xd3;" 
 />
    <glyph glyph-name="Ocircumflex" unicode="&#xd4;" 
 />
    <glyph glyph-name="Otilde" unicode="&#xd5;" 
 />
    <glyph glyph-name="Odieresis" unicode="&#xd6;" 
 />
    <glyph glyph-name="multiply" unicode="&#xd7;" 
 />
    <glyph glyph-name="Oslash" unicode="&#xd8;" 
 />
    <glyph glyph-name="Ugrave" unicode="&#xd9;" 
 />
    <glyph glyph-name="Uacute" unicode="&#xda;" 
 />
    <glyph glyph-name="Ucircumflex" unicode="&#xdb;" 
 />
    <glyph glyph-name="Udieresis" unicode="&#xdc;" 
 />
    <glyph glyph-name="Yacute" unicode="&#xdd;" 
 />
    <glyph glyph-name="Thorn" unicode="&#xde;" 
 />
    <glyph glyph-name="germandbls" unicode="&#xdf;" 
 />
    <glyph glyph-name="agrave" unicode="&#xe0;" 
 />
    <glyph glyph-name="aacute" unicode="&#xe1;" 
 />
    <glyph glyph-name="acircumflex" unicode="&#xe2;" 
 />
    <glyph glyph-name="atilde" unicode="&#xe3;" 
 />
    <glyph glyph-name="adieresis" unicode="&#xe4;" 
 />
    <glyph glyph-name="aring" unicode="&#xe5;" 
 />
    <glyph glyph-name="ae" unicode="&#xe6;" 
 />
    <glyph glyph-name="ccedilla" unicode="&#xe7;" 
 />
    <glyph glyph-name="egrave" unicode="&#xe8;" 
 />
    <glyph glyph-name="eacute" unicode="&#xe9;" 
 />
    <glyph glyph-name="ecircumflex" unicode="&#xea;" 
 />
    <glyph glyph-name="edieresis" unicode="&#xeb;" 
 />
    <glyph glyph-name="igrave" unicode="&#xec;" 
 />
    <glyph glyph-name="iacute" unicode="&#xed;" 
 />
    <glyph glyph-name="icircumflex" unicode="&#xee;" 
 />
    <glyph glyph-name="idieresis" unicode="&#xef;" 
 />
    <glyph glyph-name="eth" unicode="&#xf0;" 
 />
    <glyph glyph-name="ntilde" unicode="&#xf1;" 
 />
    <glyph glyph-name="ograve" unicode="&#xf2;" 
 />
    <glyph glyph-name="oacute" unicode="&#xf3;" 
 />
    <glyph glyph-name="ocircumflex" unicode="&#xf4;" 
 />
    <glyph glyph-name="otilde" unicode="&#xf5;" 
 />
    <glyph glyph-name="odieresis" unicode="&#xf6;" 
 />
    <glyph glyph-name="divide" unicode="&#xf7;" 
 />
    <glyph glyph-name="oslash" unicode="&#xf8;" 
 />
    <glyph glyph-name="ugrave" unicode="&#xf9;" 
 />
    <glyph glyph-name="uacute" unicode="&#xfa;" 
 />
    <glyph glyph-name="ucircumflex" unicode="&#xfb;" 
 />
    <glyph glyph-name="udieresis" unicode="&#xfc;" 
 />
    <glyph glyph-name="yacute" unicode="&#xfd;" 
 />
    <glyph glyph-name="thorn" unicode="&#xfe;" 
 />
    <glyph glyph-name="ydieresis" unicode="&#xff;" 
 />
    <glyph glyph-name="dotlessi" unicode="&#x131;" 
 />
    <glyph glyph-name="gravecomb" unicode="&#x300;" 
 />
    <glyph glyph-name="acutecomb" unicode="&#x301;" 
 />
    <glyph glyph-name="uni0302" unicode="&#x302;" 
 />
    <glyph glyph-name="tildecomb" unicode="&#x303;" 
 />
    <glyph glyph-name="uni0304" unicode="&#x304;" 
 />
    <glyph glyph-name="uni0307" unicode="&#x307;" 
 />
    <glyph glyph-name="uni0308" unicode="&#x308;" 
 />
    <glyph glyph-name="uni030A" unicode="&#x30a;" 
 />
    <glyph glyph-name="uni030C" unicode="&#x30c;" 
 />
    <glyph glyph-name="uni0327" unicode="&#x327;" 
 />
    <glyph glyph-name="endash" unicode="&#x2013;" horiz-adv-x="874" 
d="M814 416v0h-754v160h754v-160z" />
    <glyph glyph-name="emdash" unicode="&#x2014;" horiz-adv-x="1021" 
d="M961 416v0h-901v160h901v-160z" />
    <glyph glyph-name="quoteleft" unicode="&#x2018;" horiz-adv-x="280" 
d="M220 707v0h-160v152l109 120v-120h51v-152z" />
    <glyph glyph-name="quoteright" unicode="&#x2019;" horiz-adv-x="280" 
d="M60 979v0h160v-152l-109 -120v120h-51v152z" />
    <glyph glyph-name="quotesinglbase" unicode="&#x201a;" 
 />
    <glyph glyph-name="quotedblleft" unicode="&#x201c;" horiz-adv-x="519" 
d="M459 707v0h-160v152l109 120v-120h51v-152zM220 707v0h-160v152l109 120v-120h51v-152z" />
    <glyph glyph-name="quotedblright" unicode="&#x201d;" horiz-adv-x="519" 
d="M60 979v0h160v-152l-109 -120v120h-51v152zM299 979v0h160v-152l-109 -120v120h-51v152z" />
    <glyph glyph-name="quotedblbase" unicode="&#x201e;" 
 />
    <glyph glyph-name="dagger" unicode="&#x2020;" 
 />
    <glyph glyph-name="daggerdbl" unicode="&#x2021;" 
 />
    <glyph glyph-name="bullet" unicode="&#x2022;" 
 />
    <glyph glyph-name="ellipsis" unicode="&#x2026;" 
 />
    <glyph glyph-name="guilsinglleft" unicode="&#x2039;" 
 />
    <glyph glyph-name="guilsinglright" unicode="&#x203a;" 
 />
    <glyph glyph-name="fraction" unicode="&#x2044;" 
 />
    <glyph glyph-name="fraction" unicode="&#x2215;" 
 />
    <glyph glyph-name="franc" unicode="&#x20a3;" 
 />
    <glyph glyph-name="lira" unicode="&#x20a4;" 
 />
    <glyph glyph-name="peseta" unicode="&#x20a7;" 
 />
    <glyph glyph-name="Euro" unicode="&#x20ac;" 
 />
    <glyph glyph-name="uni2116" unicode="&#x2116;" 
 />
    <glyph glyph-name="trademark" unicode="&#x2122;" 
 />
    <glyph glyph-name="partialdiff" unicode="&#x2202;" 
 />
    <glyph glyph-name="Delta" unicode="&#x2206;" 
 />
    <glyph glyph-name="product" unicode="&#x220f;" 
 />
    <glyph glyph-name="summation" unicode="&#x2211;" 
 />
    <glyph glyph-name="minus" unicode="&#x2212;" horiz-adv-x="750" 
d="M690 416v0h-630v160h630v-160z" />
    <glyph glyph-name="radical" unicode="&#x221a;" 
 />
    <glyph glyph-name="infinity" unicode="&#x221e;" 
 />
    <glyph glyph-name="integral" unicode="&#x222b;" 
 />
    <glyph glyph-name="approxequal" unicode="&#x2248;" 
 />
    <glyph glyph-name="lessequal" unicode="&#x2264;" 
 />
    <glyph glyph-name="greaterequal" unicode="&#x2265;" 
 />
    <glyph glyph-name="uniFB01" unicode="&#xfb01;" 
 />
    <glyph glyph-name="uniFB02" unicode="&#xfb02;" 
 />
  </font>
</defs>
</svg>
